<svg width="158" height="51" viewBox="0 0 158 51" fill="none" xmlns="http://www.w3.org/2000/svg">
<path d="M50.7529 28.7637V36H45.6113V14.6719H54.1221C55.7529 14.6719 57.1934 14.9746 58.4434 15.5801C59.7031 16.1758 60.6748 17.0303 61.3584 18.1436C62.0518 19.2471 62.3984 20.502 62.3984 21.9082C62.3984 23.9883 61.6514 25.6533 60.1572 26.9033C58.6729 28.1436 56.6318 28.7637 54.0342 28.7637H50.7529ZM50.7529 24.7939H54.1221C55.1182 24.7939 55.875 24.5449 56.3926 24.0469C56.9199 23.5488 57.1836 22.8457 57.1836 21.9375C57.1836 20.9414 56.915 20.1455 56.3779 19.5498C55.8408 18.9541 55.1084 18.6514 54.1807 18.6416H50.7529V24.7939ZM72.1771 28.4707H69.3939V36H64.2523V14.6719H72.6459C75.1752 14.6719 77.1527 15.2334 78.5785 16.3564C80.0043 17.4795 80.7172 19.0664 80.7172 21.1172C80.7172 22.6016 80.4145 23.832 79.809 24.8086C79.2133 25.7852 78.2758 26.5762 76.9965 27.1816L81.4496 35.7803V36H75.9418L72.1771 28.4707ZM69.3939 24.501H72.6459C73.6225 24.501 74.3549 24.2471 74.8432 23.7393C75.3412 23.2217 75.5902 22.5039 75.5902 21.5859C75.5902 20.668 75.3412 19.9502 74.8432 19.4326C74.3451 18.9053 73.6127 18.6416 72.6459 18.6416H69.3939V24.501ZM89.0012 36H83.8742V14.6719H89.0012V36ZM100.228 14.6719L104.989 29.5107L109.735 14.6719H116.503V36H111.346V31.0195L111.845 20.8242L106.688 36H103.29L98.1189 20.8096L98.617 31.0195V36H93.4754V14.6719H100.228ZM135.78 27.5332H120.326V23.666H135.78V27.5332ZM155.957 14.6719V28.6318C155.957 30.2139 155.621 31.5859 154.947 32.748C154.273 33.9004 153.306 34.7793 152.046 35.3848C150.787 35.9902 149.297 36.293 147.579 36.293C144.981 36.293 142.935 35.6191 141.441 34.2715C139.947 32.9238 139.185 31.0781 139.156 28.7344V14.6719H144.327V28.8369C144.385 31.1709 145.469 32.3379 147.579 32.3379C148.643 32.3379 149.449 32.0449 149.996 31.459C150.542 30.873 150.816 29.9209 150.816 28.6025V14.6719H155.957Z" fill="white"/>
<path fill-rule="evenodd" clip-rule="evenodd" d="M16 51C28 37 32 22.5 32 16.5C31.5 5.5 23 0 16 0L16 9C19.866 9 23 12.134 23 16C23 19.866 19.866 23 16 23L16 51Z" fill="white" fill-opacity="0.6"/>
<path fill-rule="evenodd" clip-rule="evenodd" d="M16 51C4 37 0 22.5 0 16.5C0.5 5.5 9 0 16 0L16 9C12.134 9 9 12.134 9 16C9 19.866 12.134 23 16 23L16 51Z" fill="white"/>
<path fill-rule="evenodd" clip-rule="evenodd" d="M16 32C24.8366 32 32 24.8366 32 16C32 7.16344 24.8366 0 16 0C7.16344 0 0 7.16344 0 16C0 24.8366 7.16344 32 16 32ZM16 23C19.866 23 23 19.866 23 16C23 12.134 19.866 9 16 9C12.134 9 9 12.134 9 16C9 19.866 12.134 23 16 23Z" fill="white"/>
</svg>
